<?xml version="1.0" encoding="utf-8"?>
<!-- Generator: Adobe Illustrator 23.0.1, SVG Export Plug-In . SVG Version: 6.00 Build 0)  -->
<svg version="1.1" id="Layer_1" xmlns="http://www.w3.org/2000/svg" xmlns:xlink="http://www.w3.org/1999/xlink" x="0px" y="0px"
	 viewBox="0 0 1366 768" style="enable-background:new 0 0 1366 768;" xml:space="preserve">
<style type="text/css">
	.st0{fill:#FE1108;}
	.st1{fill:#F2D6D6;}
	.st2{fill:#F4E1E1;}
	.st3{fill:#F7716B;}
	.st4{fill:#09093D;}
</style>
<g>
	<path class="st0" d="M783.42,321.18c15.02,46.27,9.67,74.81-3.26,126.37c-13.02,51.9-27.39,96.55-2.15,105.57
		c25.24,9.01,54.52-36.87,60.08-99.74C843.66,390.5,817.06,341.01,783.42,321.18z"/>
	<path class="st1" d="M864.36,493.7c12.75,12.75,21.41,39.28,26.45,56.36c10.75,36.44-0.69,63.11-0.69,63.11s-24.41-0.2-24.41,12.94
		s49.75,15.75,56.92,2.84s13.39-79.85,13.39-79.85L864.36,493.7z"/>
	<path class="st1" d="M1103.27,557.3c6.58,15.98,51.23,21.15,49.82,39.48c-1.41,18.33-6.58,19.5-6.58,19.5s-22.79-2.41-22.79,11.52
		c0,13.92,45.87,12.9,54.28,0.94c9.22-13.1,16.2-44.28,11.9-59.07c-2.9-9.96-5.82-31.67,0.79-48.65L1103.27,557.3z"/>
	<path class="st2" d="M819.76,293.43c-41.48,0-66.4,32.02-81.31,62.37c-15.46,31.47-58.23,34.97-58.23,34.97
		c-12.07,42.95,50.53,110.83,134.25,55.02c15.51,33.59,94.49,64.41,111.92,123.52c11.97,40.58,3.73,70.28,3.73,70.28
		s-27.18-0.23-27.18,14.41c0,14.63,55.4,17.54,63.39,3.16s14.91-88.92,14.91-88.92c48.65,20.92,145.43,19.84,171.23,7.48
		c7.53,18.28,58.6,24.19,56.99,45.16s-7.53,22.31-7.53,22.31s-26.07-2.75-26.07,13.17s52.47,14.75,62.1,1.08
		c10.54-14.98,18.54-50.65,13.62-67.56c-3.32-11.4-6.65-36.23,0.9-55.66c10.17-26.14,1.56-83.33-82.39-77.18
		c-83.95,6.15-174.66-0.31-212.79-34.75C919.16,387.84,894.86,293.43,819.76,293.43z"/>
	<g>
		<path class="st3" d="M722.44,374.83c6.34-4.8,12.07-11,16.01-19.04c14.91-30.34,39.82-62.36,81.31-62.36
			c27.82,0,48.66,12.96,65.82,31.02C890.63,376.57,858.59,460.05,722.44,374.83z"/>
		<path class="st3" d="M957.29,422.28c38.13,34.44,128.85,40.9,212.79,34.75c54.49-3.99,77.23,18.7,83.71,42.27
			c-27.83-16.83-76.2-17.39-158.81,16.81c-103.05,42.65-179.66-78.13-174.33-143.69C932.96,391.92,944.32,410.57,957.29,422.28z"/>
	</g>
	<path class="st3" d="M1201.36,457.96c32.04,6.17,58.06-33.89,63.12-58.81c5.42-26.73,0.31-55.37-8.6-70.06s5.72-21.43,14.25-10.17
		c9.18,12.11,28.78,42.49,17.43,91.69c-10.36,44.89-25.91,68.21-46.25,75.55L1201.36,457.96z"/>
	<path class="st4" d="M786.62,359.85c0,4.1,3.32,7.43,7.43,7.43c4.1,0,7.43-3.32,7.43-7.43c0-4.1-3.32-7.42-7.43-7.42
		C789.94,352.42,786.62,355.75,786.62,359.85z"/>
	<path class="st4" d="M749.26,359.85c0,4.1,3.32,7.43,7.43,7.43c4.1,0,7.43-3.32,7.43-7.43c0-4.1-3.32-7.42-7.43-7.42
		C752.59,352.42,749.26,355.75,749.26,359.85z"/>
	<path class="st4" d="M700.85,386.06c-2.55,13.05-9.45,24.54-19.12,32.91c-3.32-9.6-3.98-19.42-1.51-28.2
		C680.22,390.77,689.43,390.01,700.85,386.06z"/>
	<path class="st0" d="M853.18,321.18c17.36,53.47,11.18,86.46-3.76,146.05c-15.05,59.98-31.65,111.59-2.49,122
		c29.17,10.42,63.01-42.61,69.44-115.27S892.07,344.1,853.18,321.18z"/>
</g>
</svg>
